<?xml version="1.0" encoding="utf-8"?>
<!-- Generator: Adobe Illustrator 24.3.0, SVG Export Plug-In . SVG Version: 6.00 Build 0)  -->
<svg version="1.1" id="Capa_1" xmlns="http://www.w3.org/2000/svg" xmlns:xlink="http://www.w3.org/1999/xlink" x="0px" y="0px"
	 viewBox="0 0 200 200" style="enable-background:new 0 0 200 200;" xml:space="preserve">
<path d="M200,67.19c0,30.6,0,61.2,0,91.8c-0.07,0.1-0.19,0.2-0.22,0.32c-2.64,10.6-9.07,15.63-19.98,15.63
	c-53.08,0-106.16,0-159.25,0c-0.65,0-1.3,0.01-1.95-0.01c-10.47-0.37-18.2-8.26-18.21-18.75C0.37,127,0.39,97.84,0.4,68.67
	c0-0.47,0.1-0.93,0.16-1.49c0.35,0.19,0.53,0.27,0.69,0.38c26.96,18.01,53.91,36.02,80.87,54.03c12.09,8.08,24.07,8.09,36.17,0.01
	c24.1-16.08,48.18-32.18,72.28-48.27C193.69,71.25,196.85,69.24,200,67.19z"/>
<path d="M200,46.09c-0.74,1.99-1.14,4.22-2.31,5.92c-1.59,2.31-3.47,4.66-5.76,6.2c-27.1,18.26-54.27,36.42-81.49,54.49
	c-6.71,4.46-13.8,4.44-20.51-0.02C62.65,94.58,35.44,76.36,8.24,58.14c-6.53-4.37-9.23-11.95-7.16-19.5
	C3.2,30.92,9.8,25.65,18.03,25.11c0.58-0.04,1.17-0.04,1.75-0.04c53.6,0,107.2-0.01,160.81,0c8.88,0,15.82,4.76,18.44,12.61
	c0.37,1.1,0.65,2.22,0.97,3.33C200,42.71,200,44.4,200,46.09z"/>
</svg>
