<?xml version="1.0" encoding="utf-8"?>
<!-- Generator: Adobe Illustrator 24.3.0, SVG Export Plug-In . SVG Version: 6.00 Build 0)  -->
<svg version="1.1" id="Capa_1" xmlns="http://www.w3.org/2000/svg" xmlns:xlink="http://www.w3.org/1999/xlink" x="0px" y="0px"
	 viewBox="0 0 200 200" style="enable-background:new 0 0 200 200;" xml:space="preserve">
<path d="M41.72,0c3.95,0.86,7.75,2.07,10.92,4.75c0.45,0.38,0.91,0.73,1.33,1.14c8.96,8.97,17.96,17.9,26.86,26.94
	c6.61,6.71,7.76,15.93,3.1,23.61c-2.1,3.46-5.06,5.89-8.87,7.26c-5.5,1.98-9.74,5.35-12.11,10.84c-1.58,3.65-1.79,7.38-0.76,11.24
	c2.58,9.72,7.83,17.93,14.26,25.47c8.18,9.59,17.59,17.69,28.96,23.31c4.03,1.99,8.2,3.83,12.79,3.62
	c8.7-0.39,14.81-4.61,17.89-12.92c1.48-3.99,3.95-7.13,7.61-9.31c6.96-4.13,15.78-3.57,21.75,1.9c5.75,5.27,11.15,10.92,16.66,16.44
	c4.5,4.51,9.16,8.89,13.33,13.68c5.58,6.41,5.75,16.44,0.8,23.38c-1.01,1.42-2.15,2.77-3.38,4.02
	c-5.25,5.33-10.64,10.52-15.81,15.92c-4.71,4.92-10.37,7.68-17.09,8.39c-0.3,0.03-0.59,0.21-0.89,0.32c-2.73,0-5.46,0-8.19,0
	c-3.61-0.7-7.27-1.22-10.83-2.13c-14.69-3.74-27.96-10.66-40.6-18.83c-20.98-13.57-39.4-30.13-55.84-48.91
	C29.14,113.61,16.63,95.8,8.01,75.47c-4.05-9.56-7.05-19.42-7.35-29.92c-0.26-9.26,2.19-17.4,9.29-23.88
	c4.61-4.2,8.95-8.7,13.24-13.23C27.17,4.25,31.48,0.79,37.43,0C38.86,0,40.29,0,41.72,0z"/>
</svg>
