<svg id="Capa_1" data-name="Capa 1" xmlns="http://www.w3.org/2000/svg" viewBox="0 0 200 200"><path d="M200,108.2c-.51,3.73-.81,7.49-1.55,11.17-7.14,35.48-27.81,59.86-60.91,73.95a57.71,57.71,0,0,1-5.87,2.1c-4.26,1.29-7.13-.83-7.13-5.22,0-7.88,0-15.76.09-23.63.1-7.59-.8-14.82-6.4-20.56,4.56-.91,9-1.59,13.42-2.74,10-2.61,18.57-7.45,24.4-16.31,4.67-7.1,6.56-15.09,7.2-23.43.56-7.19.48-14.4-2.68-21.06-1.74-3.66-4.24-7-6.33-10.46a3.25,3.25,0,0,1-.55-2.19c2.38-7.78,1.72-15.4-.71-23-.6-1.91-1.77-2.37-3.3-2-3.67.77-7.47,1.33-10.9,2.75-4.35,1.81-8.36,4.44-12.58,6.6a4.48,4.48,0,0,1-2.85.49,97.11,97.11,0,0,0-46.95,0,4.42,4.42,0,0,1-3-.58c-6.23-3.82-12.57-7.36-19.83-8.86C47.82,44,47.13,44.37,45.7,50a34.62,34.62,0,0,0,.39,20,2,2,0,0,1-.34,1.66c-8.5,9.56-10.48,20.89-9.2,33.17.82,7.8,2.65,15.25,7,21.9,5.81,9,14.41,13.89,24.46,16.54,4.33,1.14,8.77,1.84,13.25,2.75a1.94,1.94,0,0,1-.33.6,19.83,19.83,0,0,0-5.11,10.56,2.91,2.91,0,0,1-2.21,2.56c-7.37,2.48-14.64,3.05-21.15-2a33.11,33.11,0,0,1-6.23-7.14c-3.57-5-7.86-8.85-14.19-9.73a9.44,9.44,0,0,0-3.27.13c-.8.19-1.94.73-2.09,1.32s.53,1.64,1.06,2.29a7.81,7.81,0,0,0,2.11,1.72,25.1,25.1,0,0,1,10.82,13.19c4.69,12.61,16.17,16.74,27.75,15.71,2.14-.19,4.25-.55,6.51-.85,0,.48.14,1,.15,1.46,0,4.69.11,9.38.14,14.06s-3,7.13-7.57,5.48c-34.26-12.46-56.29-36.12-65.2-71.63C1.32,119.3,1,114.65.33,110.08c-.09-.62-.22-1.25-.33-1.88V96.09c.54-3.85.94-7.73,1.66-11.55C10,40.18,48.1,7,93.76,4.35,117.58,3,139.45,9,158.84,23c21.45,15.52,34.79,36.36,39.63,62.49.67,3.62,1,7.31,1.53,11Z"/></svg>