<?xml version="1.0" encoding="utf-8"?>
<!-- Generator: Adobe Illustrator 24.3.0, SVG Export Plug-In . SVG Version: 6.00 Build 0)  -->
<svg version="1.1" id="Capa_1" xmlns="http://www.w3.org/2000/svg" xmlns:xlink="http://www.w3.org/1999/xlink" x="0px" y="0px"
	 viewBox="0 0 200 60.79" style="enable-background:new 0 0 200 60.79;" xml:space="preserve">
<style type="text/css">
	.st0{fill:#FFFFFF;}
</style>
<path class="st0" d="M11.97,32.19c-2.18-0.81-4.06-1.95-5.66-3.44c-1.6-1.49-2.84-3.25-3.72-5.29c-0.88-2.04-1.32-4.29-1.32-6.75
	c0-2.46,0.44-4.72,1.32-6.75c0.88-2.04,2.12-3.8,3.72-5.29c1.6-1.49,3.48-2.64,5.66-3.45C14.15,0.4,16.51,0,19.07,0
	c3.13,0,5.91,0.55,8.33,1.64s4.42,2.68,6,4.75l-6.8,6.07c-0.94-1.19-1.98-2.11-3.13-2.76c-1.14-0.65-2.43-0.98-3.86-0.98
	c-1.13,0-2.15,0.18-3.06,0.55c-0.91,0.36-1.7,0.9-2.35,1.6c-0.65,0.7-1.16,1.54-1.53,2.53c-0.37,0.99-0.55,2.09-0.55,3.31
	s0.18,2.32,0.55,3.31c0.36,0.99,0.87,1.83,1.53,2.53c0.65,0.7,1.44,1.23,2.35,1.6c0.91,0.36,1.93,0.55,3.06,0.55
	c1.43,0,2.71-0.33,3.86-0.98c1.14-0.65,2.18-1.57,3.13-2.76l6.8,6.07c-1.58,2.04-3.58,3.61-6,4.72c-2.42,1.11-5.19,1.67-8.33,1.67
	C16.51,33.4,14.15,33,11.97,32.19z M32.57,32.67L46.54,0.73h10.59l13.96,31.94H59.95l-2.14-5.57H45.67l-2.14,5.57H32.57z
	 M54.83,19.35l-3.09-8.05l-3.09,8.05H54.83z M86.52,24.64h-2.93v8.03H72.82V0.73H88.2c2.98,0,5.56,0.49,7.73,1.46
	s3.86,2.37,5.04,4.18c1.19,1.81,1.78,3.95,1.78,6.41s-0.59,4.59-1.78,6.37c-1.03,1.55-2.47,2.77-4.26,3.68l6.72,9.85h-11.5
	L86.52,24.64z M87.52,9.04h-3.92v7.48h3.92c1.49,0,2.59-0.33,3.31-1c0.71-0.67,1.07-1.58,1.07-2.74s-0.36-2.07-1.07-2.74
	C90.11,9.37,89.01,9.04,87.52,9.04z M132.01,24.32h-14.42V0.73h-10.77v31.94h25.19V24.32z M134.59,23.36
	c-0.9-2.04-1.35-4.26-1.35-6.66c0-2.43,0.45-4.66,1.35-6.69c0.9-2.02,2.15-3.79,3.76-5.29c1.61-1.51,3.52-2.67,5.73-3.49
	c2.21-0.82,4.6-1.23,7.19-1.23c2.62,0,5.02,0.41,7.21,1.23c2.19,0.82,4.09,1.99,5.7,3.49c1.61,1.51,2.87,3.27,3.76,5.29
	c0.9,2.02,1.35,4.25,1.35,6.69c0,2.4-0.45,4.62-1.35,6.66c-0.9,2.04-2.15,3.81-3.76,5.32c-1.61,1.51-3.51,2.67-5.7,3.49
	c-2.19,0.82-4.58,1.23-7.16,1.23c-2.62,0-5.03-0.41-7.23-1.23c-2.21-0.82-4.11-1.98-5.73-3.49
	C136.74,27.17,135.48,25.4,134.59,23.36z M144.1,16.7c0,1.25,0.18,2.37,0.55,3.35c0.37,0.99,0.87,1.83,1.53,2.51
	c0.65,0.68,1.42,1.21,2.28,1.57c0.87,0.36,1.8,0.55,2.81,0.55c1,0,1.94-0.18,2.81-0.55c0.87-0.36,1.63-0.89,2.28-1.57
	c0.65-0.68,1.16-1.52,1.53-2.51c0.36-0.99,0.55-2.11,0.55-3.35c0-1.25-0.18-2.37-0.55-3.35c-0.37-0.99-0.88-1.83-1.53-2.51
	c-0.66-0.68-1.42-1.21-2.28-1.57c-0.87-0.37-1.8-0.55-2.81-0.55c-1,0-1.94,0.18-2.81,0.55c-0.87,0.36-1.63,0.89-2.28,1.57
	c-0.65,0.68-1.16,1.52-1.53,2.51C144.28,14.34,144.1,15.45,144.1,16.7z M199.04,18.44c-0.64-1.12-1.48-2.04-2.53-2.74
	c-1.05-0.7-2.2-1.26-3.45-1.69c-1.25-0.43-2.5-0.76-3.76-1c-1.26-0.24-2.42-0.47-3.47-0.68c-1.05-0.21-1.89-0.48-2.53-0.8
	c-0.64-0.32-0.96-0.75-0.96-1.3c0-0.36,0.13-0.7,0.39-1c0.26-0.3,0.69-0.55,1.3-0.73c0.61-0.18,1.43-0.27,2.46-0.27
	c1.4,0,2.84,0.2,4.31,0.59c1.47,0.4,3,0.99,4.59,1.78l3.24-7.8c-1.67-0.94-3.56-1.64-5.66-2.1c-2.1-0.46-4.23-0.68-6.39-0.68
	c-3.29,0-6.03,0.49-8.24,1.46c-2.21,0.97-3.86,2.28-4.97,3.9c-1.11,1.63-1.67,3.43-1.67,5.41c0,1.7,0.32,3.13,0.96,4.27
	c0.64,1.14,1.48,2.06,2.53,2.76c1.05,0.7,2.21,1.26,3.47,1.69c1.26,0.43,2.52,0.77,3.77,1.03c1.25,0.26,2.4,0.5,3.44,0.73
	s1.89,0.51,2.53,0.84c0.64,0.34,0.96,0.79,0.96,1.37c0,0.36-0.14,0.68-0.41,0.94c-0.27,0.26-0.71,0.46-1.3,0.59
	c-0.59,0.14-1.41,0.2-2.44,0.2c-1.76,0-3.58-0.27-5.45-0.8c-1.87-0.53-3.57-1.24-5.09-2.12l-3.47,7.85
	c1.61,0.97,3.67,1.77,6.16,2.37c2.49,0.61,5.08,0.91,7.76,0.91c3.32,0,6.07-0.5,8.26-1.48c2.19-0.99,3.84-2.3,4.95-3.92
	c1.11-1.63,1.67-3.41,1.67-5.36C200,20.96,199.68,19.56,199.04,18.44z M7.67,37.52H0v22.75h17.94v-5.95H7.67V37.52z M20.05,60.27
	h7.67V37.52h-7.67V60.27z M46.44,37.52l9.95,22.75h-7.93l-1.52-3.97h-8.65l-1.52,3.97h-7.8l9.95-22.75H46.44z M44.81,50.78
	l-2.2-5.73l-2.2,5.73H44.81z M81.1,44.13c0.64,1.44,0.96,3.03,0.96,4.76c0,1.71-0.32,3.29-0.96,4.74c-0.64,1.45-1.53,2.71-2.68,3.79
	c-1.15,1.07-2.5,1.9-4.06,2.49c-1.56,0.58-3.26,0.88-5.1,0.88c-1.86,0-3.58-0.29-5.15-0.88c-1.57-0.59-2.93-1.41-4.08-2.49
	c-1.15-1.07-2.04-2.33-2.68-3.79c-0.64-1.45-0.96-3.03-0.96-4.74c0-1.73,0.32-3.32,0.96-4.76c0.64-1.44,1.53-2.7,2.68-3.77
	c1.15-1.07,2.51-1.9,4.08-2.49c1.57-0.59,3.28-0.88,5.12-0.88c1.86,0,3.57,0.29,5.13,0.88c1.56,0.58,2.91,1.41,4.06,2.49
	C79.57,41.43,80.46,42.69,81.1,44.13z M74.33,48.89c0-0.89-0.13-1.68-0.39-2.39c-0.26-0.7-0.62-1.3-1.09-1.79
	c-0.47-0.49-1.01-0.86-1.62-1.12c-0.62-0.26-1.28-0.39-2-0.39c-0.71,0-1.38,0.13-2,0.39c-0.62,0.26-1.16,0.63-1.62,1.12
	c-0.47,0.49-0.83,1.08-1.09,1.79c-0.26,0.7-0.39,1.5-0.39,2.39c0,0.89,0.13,1.68,0.39,2.39c0.26,0.7,0.62,1.3,1.09,1.79
	c0.47,0.49,1.01,0.86,1.62,1.12c0.62,0.26,1.28,0.39,2,0.39c0.71,0,1.38-0.13,2-0.39c0.62-0.26,1.16-0.63,1.62-1.12
	c0.47-0.49,0.83-1.08,1.09-1.79C74.2,50.58,74.33,49.78,74.33,48.89z M92.88,43.47h6.66v16.8h7.67v-16.8h6.66v-5.95H92.88V43.47z
	 M132.88,53.25l4.79,7.01h-8.19l-3.86-5.72h-2.09v5.72h-7.67V37.52h10.95c2.12,0,3.96,0.35,5.51,1.04c1.55,0.69,2.75,1.69,3.59,2.97
	c0.85,1.29,1.27,2.81,1.27,4.57c0,1.75-0.42,3.27-1.27,4.53C135.17,51.74,134.15,52.6,132.88,53.25z M126.32,43.43h-2.79v5.33h2.79
	c1.06,0,1.85-0.24,2.36-0.72s0.76-1.13,0.76-1.95c0-0.82-0.25-1.47-0.76-1.95C128.17,43.67,127.39,43.43,126.32,43.43z
	 M140.07,60.27h7.67V37.52h-7.67V60.27z M166.39,47.86l-8.64-10.35h-6.31v22.75h7.48V49.92l8.64,10.34h6.31V37.52h-7.48V47.86z
	 M192.33,45.58h-7.08v-8.06h-7.67v22.75h7.67v-8.38h7.08v8.38H200V37.52h-7.67V45.58z"/>
</svg>
